<svg xmlns="http://www.w3.org/2000/svg" viewBox="0 0 513 513" width="50" height="50">
	<style>
		tspan { white-space:pre }
		.shp0 { fill: #fe7cb8 } 
		.shp1 { fill: #ff3a80 } 
		.shp2 { fill: #f9bbde } 
		.shp3 { fill: #e50058 } 
		.shp4 { fill: #b40042 } 
	</style>
	<g id="Layer">
		<path id="Layer" class="shp0" d="M119.05 43.01L19.13 115L19.13 285.81L256 464.62L497.86 276.64L497.86 111.94L375.92 47.6L274.96 112.71L119.05 43.01Z" />
		<path id="Layer" class="shp1" d="M375.92 47.6L274.96 112.71L256 104.23L256 464.62L497.86 276.64L497.86 111.94L375.92 47.6Z" />
		<path id="Layer" class="shp2" d="M91.64 155.09L91.64 251.49L252.49 370.07L422.54 244.45L422.54 155.09L377.6 128.54L256.01 197.98L138.11 128.54L91.64 155.09Z" />
		<path id="Layer" fill-rule="evenodd" class="shp3" d="M504.66 101.06C509.22 103.76 512.01 108.67 512.01 113.96L512.01 284.51C512.01 289.18 509.84 293.58 506.13 296.42L265.12 480.92C262.43 482.98 259.22 484.01 256.01 484.01C252.78 484.01 249.57 482.98 246.87 480.91L5.87 295.91C2.17 293.07 0.01 288.67 0.01 284.01L0 113.96C0 108.7 2.76 103.82 7.27 101.11L125.31 30.14C129.95 27.35 135.74 27.28 140.46 29.96L256.01 95.75L370.76 30.42C375.45 27.75 381.2 27.8 385.84 30.55L504.66 101.06ZM467.35 113.81L393.01 69.69L393.01 120.85L423.65 139.04L467.35 113.81ZM408.01 240.56L408.01 164.64L377.26 146.39L263.43 211.2C258.83 213.82 253.19 213.82 248.58 211.2L134.26 146.11L104 164.3L104 240.13L256.08 356.87L408.01 240.56ZM363.01 69.35L271.01 121.73L271.01 172.36L363.01 119.98L363.01 69.35ZM241.01 121.73L149.05 69.38L149.05 120.01L241.01 172.36L241.01 121.73ZM119.05 120.25L119.05 68.91L45.29 113.26L88.85 138.41L119.05 120.25L119.05 120.25ZM30.01 263.54L74 238.13L74 164.47L30 139.07L30.01 263.54ZM46.04 288.92L241.01 438.58L241.01 383.12L87.28 265.11L46.04 288.92ZM271.01 438.64L466.99 288.6L425.73 264.77L271.01 383.22L271.01 438.64ZM482.01 262.63L482.01 139.98L438.01 165.39L438.01 237.22L482.01 262.63Z" />
		<path id="Layer" class="shp0" d="M377.6 128.54L256 197.98L256 367.48L422.54 244.45L422.54 155.09L377.6 128.54Z" />
		<path id="Layer" fill-rule="evenodd" class="shp4" d="M504.67 101.06C509.22 103.76 512.01 108.67 512.01 113.96L512.01 284.51C512.01 289.18 509.84 293.58 506.13 296.42L265.12 480.92C262.43 482.98 259.22 484.01 256.01 484.01L256.01 356.81L256.08 356.87L408.01 240.55L408.01 164.64L377.26 146.39L263.43 211.2C261.13 212.5 258.57 213.16 256.01 213.16L256.01 95.75L370.76 30.42C375.45 27.75 381.2 27.8 385.84 30.55L504.67 101.06ZM363 69.35L271 121.73L271 172.36L363 119.98L363 69.35ZM423.65 139.04L467.35 113.8L393 69.69L393 120.85L423.65 139.04ZM466.99 288.6L425.73 264.77L271 383.22L271 438.63L466.99 288.6ZM482.01 139.98L438.01 165.39L438.01 237.22L482.01 262.63L482.01 139.98Z" />
	</g>
</svg>