<svg xmlns="http://www.w3.org/2000/svg" viewBox="0 0 48 48" width="48" height="48">
	<style>
		tspan { white-space:pre }
		.shp0 { fill: #ff7575 } 
		.shp1 { fill: #ffeaea } 
		.shp2 { fill: none;stroke: #45413c;stroke-linecap:round;stroke-linejoin:round } 
	</style>
	<g id="XMLID_16360_">
		<g id="XMLID_16361_">
			<path id="XMLID_16364_" class="shp0" d="M24 11.9C24 6.4 28.5 1.9 34 1.9C41 1.9 44 8.9 44 14.4C44 29 30.2 38.3 25.5 41.1C24.6 41.6 23.4 41.6 22.5 41.1C17.8 38.3 4 29 4 14.4C4 8.9 7 1.9 14 1.9C19.5 1.9 24 6.4 24 11.9Z" />
			<path id="XMLID_16363_" class="shp1" d="M13.5 6.9C17.8 6.9 21.5 9.5 23.1 13.1C23.4 13.9 24.6 13.9 24.9 13.1C26.5 9.4 30.2 6.9 34.5 6.9C39.5 6.9 42.6 10.3 44 14.3C44 8.8 41 1.9 34 1.9C28.5 1.9 24 6.4 24 11.9C24 6.4 19.5 1.9 14 1.9C7 1.9 4 8.8 4 14.3C5.4 10.3 8.5 6.9 13.5 6.9Z" />
			<path id="XMLID_16362_" class="shp2" d="M24 11.9C24 6.4 28.5 1.9 34 1.9C41 1.9 44 8.9 44 14.4C44 29 30.2 38.3 25.5 41.1C24.6 41.6 23.4 41.6 22.5 41.1C17.8 38.3 4 29 4 14.4C4 8.9 7 1.9 14 1.9C19.5 1.9 24 6.4 24 11.9Z" />
		</g>
	</g>
</svg>